<?xml version="1.0" standalone="no"?><!DOCTYPE svg PUBLIC "-//W3C//DTD SVG 1.1//EN" "http://www.w3.org/Graphics/SVG/1.1/DTD/svg11.dtd"><svg t="1527146463779" class="icon" style="" viewBox="0 0 1024 1024" version="1.1" xmlns="http://www.w3.org/2000/svg" p-id="2016" xmlns:xlink="http://www.w3.org/1999/xlink" width="200" height="200"><defs><style type="text/css"></style></defs><path d="M404.456448 134.827008l0 754.345984-134.861824 0 0-754.345984L404.456448 134.827008M431.396864 80.945152l-188.74368 0c-14.884864 0-26.94144 12.06272-26.94144 26.94144l0 808.22784c0 14.877696 12.056576 26.940416 26.94144 26.940416l188.74368 0c14.877696 0 26.94144-12.061696 26.94144-26.940416l0-808.22784C458.338304 93.008896 446.27456 80.945152 431.396864 80.945152L431.396864 80.945152zM754.417664 134.827008l0 754.345984L620.50304 889.172992l0-754.345984L754.417664 134.827008M781.359104 80.945152 593.5616 80.945152c-14.865408 0-26.94144 12.06272-26.94144 26.94144l0 808.22784c0 14.877696 12.076032 26.940416 26.94144 26.940416l187.797504 0c14.877696 0 26.94144-12.061696 26.94144-26.940416l0-808.22784C808.29952 93.008896 796.2368 80.945152 781.359104 80.945152L781.359104 80.945152z" p-id="2017" fill="#cdcdcd"></path></svg>